<svg width="44" height="44" viewBox="0 0 44 44" fill="none" xmlns="http://www.w3.org/2000/svg">
<path d="M1.96947 27.9583C1.96219 28.6046 2.1256 29.2524 2.45973 29.8317L6.93016 37.582C7.58495 38.7172 8.79583 39.4166 10.1063 39.4166H33.8937C35.2042 39.4166 36.415 38.7172 37.0698 37.582L41.5403 29.8317C41.8744 29.2524 42.0378 28.6046 42.0305 27.9583H1.96947Z" fill="#4285F4"/>
<path d="M35.7422 38.9165L15.6895 4.18417C16.248 3.85107 16.8946 3.66669 17.5675 3.66669H26.4322C27.7422 3.66669 28.9527 4.36555 29.6077 5.50002L41.5394 26.1664C42.1941 27.3004 42.1944 28.6975 41.5401 29.8317L37.0697 37.5821C36.7452 38.1446 36.2842 38.6001 35.7422 38.9165Z" fill="#FBBC04"/>
<path d="M28.3104 4.18418C27.7519 3.85108 27.1052 3.66669 26.4324 3.66669H17.5676C16.2577 3.66669 15.0472 4.36555 14.3922 5.50002L2.46048 26.1664C1.80576 27.3004 1.80547 28.6975 2.45973 29.8318L6.93016 37.5821C7.25463 38.1446 7.71565 38.6001 8.25768 38.9166L28.3104 4.18418Z" fill="#34A853"/>
<path d="M42.0305 27.9583C42.0378 28.6046 41.8743 29.2524 41.5402 29.8317L37.0698 37.582C36.7453 38.1446 36.2843 38.6001 35.7422 38.9165L29.4155 27.9583H42.0305Z" fill="#EA4335"/>
<path d="M28.3103 4.18418C27.7517 3.85108 27.1051 3.66669 26.4322 3.66669H17.5675C16.8946 3.66669 16.248 3.85107 15.6895 4.18417L21.9999 15.1142L28.3103 4.18418Z" fill="#188038"/>
<path d="M1.96947 27.9583C1.96219 28.6046 2.1256 29.2524 2.45973 29.8317L6.93016 37.582C7.25463 38.1446 7.71565 38.6001 8.25768 38.9165L14.5844 27.9583H1.96947Z" fill="#1967D2"/>
</svg>
