<svg width="32" height="32" viewBox="0 0 32 32" fill="none" xmlns="http://www.w3.org/2000/svg">
<g clip-path="url(#clip0_6323_23498)">
<path fill-rule="evenodd" clip-rule="evenodd" d="M13.2143 0C8.96935 0 5.47813 1.50002 3.14037 4.49301C2.55755 5.23913 2.68997 6.31646 3.43611 6.89927C4.18224 7.48206 5.25957 7.34965 5.84238 6.6035C7.41774 4.58661 9.82729 3.42857 13.2143 3.42857C14.7788 3.42857 16.1253 3.67776 17.2666 4.12875C18.1472 4.47669 19.143 4.04494 19.4909 3.16441C19.8389 2.28389 19.4071 1.28803 18.5266 0.940096C16.9253 0.307353 15.142 0 13.2143 0ZM24.2475 5.91918C23.7742 5.09913 22.7259 4.81797 21.9059 5.29118C21.0858 5.76439 20.8047 6.81278 21.2779 7.6328C22.3657 9.51801 23 12.112 23 15.4477C23 16.328 22.9557 17.1591 22.8699 17.9406C22.7668 18.8817 23.4462 19.7283 24.3872 19.8315C25.3285 19.9348 26.1749 19.2555 26.2782 18.3144C26.3785 17.3986 26.4286 16.4423 26.4286 15.4477C26.4286 11.709 25.7218 8.47403 24.2475 5.91918ZM3.49874 13.5919C3.57275 12.648 2.86759 11.8228 1.92372 11.7488C0.979842 11.6748 0.154683 12.38 0.0806743 13.3238C0.0268306 14.0105 0 14.7188 0 15.4477C0 22.456 2.52585 27.7442 7.74551 29.8923C8.62105 30.2526 9.6229 29.835 9.9832 28.9593C10.3435 28.0839 9.92581 27.0821 9.05026 26.7216C5.6224 25.3111 3.42857 21.7112 3.42857 15.4477C3.42857 14.8027 3.45232 14.1841 3.49874 13.5919ZM14.948 14.0513C15.1258 13.1214 14.516 12.2235 13.586 12.0457C12.6561 11.868 11.7581 12.4778 11.5804 13.4078C11.4546 14.0659 11.3947 14.7639 11.3947 15.494C11.3947 16.3483 11.4768 17.1595 11.6508 17.9147C11.8634 18.8373 12.7837 19.4129 13.7063 19.2003C14.6289 18.9877 15.2044 18.0674 14.9918 17.1448C14.8848 16.6806 14.8232 16.132 14.8232 15.494C14.8232 14.9496 14.8681 14.4696 14.948 14.0513ZM12.0199 7.59605C12.3921 8.46661 11.9881 9.47403 11.1175 9.84622C10.0126 10.3186 9.16889 11.2838 8.75207 12.9771C8.52576 13.8964 7.59703 14.4582 6.67769 14.2319C5.75838 14.0056 5.19657 13.0769 5.42288 12.1575C6.04521 9.62949 7.49063 7.66802 9.76974 6.69367C10.6403 6.32149 11.6477 6.72549 12.0199 7.59605ZM14.4097 7.59605C14.7818 6.72549 15.7893 6.32149 16.6598 6.69367C19.918 8.08661 21.375 11.3978 21.375 15.4477C21.375 16.5317 21.2737 17.5525 21.0632 18.4972C20.8572 19.4213 19.9411 20.0034 19.017 19.7975C18.0929 19.5915 17.5107 18.6754 17.7167 17.7513C17.8645 17.0882 17.9464 16.3214 17.9464 15.4477C17.9464 12.1321 16.81 10.4866 15.3121 9.84622C14.4415 9.47403 14.0375 8.46661 14.4097 7.59605ZM6.65216 15.8166C7.58706 15.6673 8.46603 16.3041 8.61538 17.2391C8.65346 17.4775 8.69925 17.7038 8.75207 17.9184C9.06373 19.1844 9.61387 20.0263 10.288 20.5591C10.9604 21.0905 11.9039 21.4312 13.2148 21.4312C14.1987 21.4312 14.9723 21.2382 15.5733 20.9258C16.4133 20.4892 17.4483 20.8162 17.885 21.6563C18.3216 22.4963 17.9946 23.5314 17.1546 23.968C15.9835 24.5767 14.649 24.8599 13.2148 24.8599C11.2899 24.8599 9.55287 24.3481 8.16213 23.2489C6.77307 22.1512 5.87744 20.5844 5.42288 18.7379C5.34624 18.4266 5.28199 18.1071 5.22971 17.7799C5.08039 16.8449 5.71723 15.966 6.65216 15.8166ZM31.4375 22.2156C32.1387 21.5795 32.1915 20.4953 31.5554 19.7941C30.9193 19.0928 29.8352 19.0401 29.1339 19.6762C27.5611 21.1028 26.3584 22.4044 25.3394 23.9947C24.7291 24.9472 24.2018 25.9769 23.6997 27.1605L22.1765 25.5899C21.5175 24.9102 20.4322 24.8935 19.7525 25.5527C19.0728 26.2117 19.0561 27.2969 19.7152 27.9767L23.1115 31.4791C23.5255 31.9061 24.1314 32.088 24.7122 31.9595C25.2928 31.8313 25.7657 31.411 25.9611 30.8494C26.7397 28.6133 27.4199 27.1031 28.2263 25.8443C29.0261 24.5963 29.9959 23.5234 31.4375 22.2156Z" fill="url(#paint0_radial_6323_23498)"/>
</g>
<defs>
<radialGradient id="paint0_radial_6323_23498" cx="0" cy="0" r="1" gradientTransform="matrix(2.91667 33.3926 -44.9053 12.3962 16.6583 -1.39259)" gradientUnits="userSpaceOnUse">
<stop stop-color="#FFBB98"/>
<stop offset="0.0642857" stop-color="#FFBB98"/>
<stop offset="0.507143" stop-color="#9E84FF"/>
<stop offset="0.803571" stop-color="#6E47FF"/>
<stop offset="1" stop-color="#150079"/>
</radialGradient>
<clipPath id="clip0_6323_23498">
<rect width="32" height="32" fill="white"/>
</clipPath>
</defs>
</svg>
