<?xml version="1.0" encoding="utf-8"?>
<!-- Generator: Adobe Illustrator 19.0.0, SVG Export Plug-In . SVG Version: 6.00 Build 0)  -->
<svg version="1.1" id="Layer_1" xmlns="http://www.w3.org/2000/svg" xmlns:xlink="http://www.w3.org/1999/xlink" x="0px" y="0px"
	 width="40px" height="40px" viewBox="0 0 40 40" style="enable-background:new 0 0 40 40;" xml:space="preserve">
<style type="text/css">
	.st0{fill:#26A69A;}
	.st1{fill:#FFFFFF;}
</style>
<g id="typless_6_">
	<path id="XMLID_175_" class="st0" d="M36.2,0H3.8C1.7,0,0,1.7,0,3.8v32.5C0,38.3,1.7,40,3.8,40h32.4c2.1,0,3.8-1.7,3.8-3.8V3.8
		C40,1.7,38.3,0,36.2,0z"/>
	<g id="XMLID_169_">
		<path id="XMLID_171_" class="st1" d="M30.6,34.9H9.4c-2.4,0-4.4-2-4.4-4.4V9.4c0-2.4,2-4.4,4.4-4.4h21.2c2.4,0,4.4,2,4.4,4.4v21.2
			C34.9,33,33,34.9,30.6,34.9z M9.4,6.7c-1.5,0-2.7,1.2-2.7,2.7v21.2c0,1.5,1.2,2.7,2.7,2.7h21.2c1.5,0,2.7-1.2,2.7-2.7V9.4
			c0-1.5-1.2-2.7-2.7-2.7H9.4z"/>
	</g>
	<g id="XMLID_150_">
		<path id="XMLID_167_" class="st1" d="M25.1,27.3c-1.1,0.2-2.2,0.3-3.2,0.3c-1.8,0-3.1-0.3-3.7-1c-0.7-0.7-1-1.9-1-3.7v-5.9h-3.1
			v-1.7h3.1v-2.7h2.2v2.7h5.5v1.7h-5.5v6.3c0,0.7,0,1.2,0.1,1.5c0.1,0.3,0.3,0.5,0.6,0.7c0.5,0.3,1.3,0.5,2.3,0.5
			c0.9,0,1.9-0.1,2.8-0.3V27.3z"/>
	</g>
</g>
</svg>
